{"title":"Shes.Out.Of.My.League.2010.BRRip.XviD.FEEL-FREE","uid":5608731,"size":1290525752,"categoryP":"video","categoryS":"movies","magnet":"?xt=urn:btih:a9d40ebc307c164eeca3a8831ae213428b585646&amp;dn=Shes.Out.Of.My.League.2010.BRRip.XviD.FEEL-FREE&amp;tr=udp%3A%2F%2Ftracker.openbittorrent.com%3A80&amp;tr=udp%3A%2F%2Fopen.demonii.com%3A1337&amp;tr=udp%3A%2F%2Ftracker.coppersurfer.tk%3A6969&amp;tr=udp%3A%2F%2Fexodus.desync.com%3A6969","seeders":1,"leechers":0,"uploader":"xenl","files":9,"time":1275734744,"description":"+-----------------------------------------------+\n|Shes.Out.Of.My.League.2010.BRRip.XviD.FEEL-FREE|\n+-----------------------------------------------+\n...............................................\nGenre:Comedy | Romance\nLanguage:ENGLISH\nIMDb:http://www.imdb.com/title/tt0815236/\nSource:BluRay.x264-MACHD Thanks\nSubtitles: ROMANA\nEncoder: Tony2\n................................................\nGeneral\nComplete name : Shes.Out.Of.My.League.2010.BRRip.XviD.FEEL-FREE\nFormat : AVI\nFormat/Info : Audio Video Interleave\nFile size : 1.20 GiB\nDuration : 1h 44mn\nOverall bit rate : 1 641 Kbps\n.................................................\nVideo\nID : 0\nFormat : MPEG-4 Visual\nFormat profile : Simple@L3\nFormat settings, BVOP : Yes\nFormat settings, QPel : No\nFormat settings, GMC : No warppoints\nFormat settings, Matrix : Default (H.263)\nCodec ID : XVID\nCodec ID/Hint : XviD\nDuration : 1h 44mn\nBit rate : 1 501 Kbps\nWidth : 1 280 pixels\nHeight : 544 pixels\nDisplay aspect ratio : 2.35:1\nFrame rate : 23.976 fps\nResolution : 24 bits\nScan type : Progressive\nBits/(Pixel*Frame) : 0.090\nStream size : 1.10 GiB (91%)\n..................................................\nAudio\nID : 1\nFormat : MPEG Audio\nFormat version : Version 1\nFormat profile : Layer 3\nFormat settings, Mode : Joint stereo / MS Stereo\nCodec ID : 55\nCodec ID/Hint : MP3\nDuration : 1h 44mn\nBit rate mode : Constant\nBit rate : 128 Kbps\nChannel(s) : 2 channels\nSampling rate : 44.1 KHz\nResolution : 16 bits\nStream size : 95.7 MiB (8%)\nAlignment : Aligned on interleaves\nInterleave, duration : 26 ms (0.63 video frame)\n...................................................\nPlot:\nAn average Joe meets the perfect woman, but his lack of confidence and the influence of his friends and family begin to pick away at the relationship.\n...................................................","torrent":{"xt":"urn:btih:a9d40ebc307c164eeca3a8831ae213428b585646","amp;dn":"Shes.Out.Of.My.League.2010.BRRip.XviD.FEEL-FREE","amp;tr":["udp%3A%2F%2Ftracker.openbittorrent.com%3A80","udp%3A%2F%2Fopen.demonii.com%3A1337","udp%3A%2F%2Ftracker.coppersurfer.tk%3A6969","udp%3A%2F%2Fexodus.desync.com%3A6969"],"infoHash":"a9d40ebc307c164eeca3a8831ae213428b585646","infoHashBuffer":{"type":"Buffer","data":[169,212,14,188,48,124,22,78,236,163,168,131,26,226,19,66,139,88,86,70]},"announce":[],"urlList":[]}}